# xmcd
#
# Track frame offsets: 
#        182
#        11112
#        24020
#        33985
#        50982
#        60790
#        72137
#        82815
#        94655
#        106832
#        118395
#        141365
#        152945
#        163805
#        178755
#
# Disc length: 2524 seconds
#
# Revision: 1
# Processed by: cddbd v1.5.2PL0 Copyright (c) Steve Scherf et al.
# Submitted via: ExactAudioCopyFreeDBPlugin 1.0
#
DISCID=c209da0f
DTITLE=Various Artist - Country Giants - The Queens
DYEAR=1900
DGENRE=Country
TTITLE0=Tammy Wynette - Stand by your name
TTITLE1=Donna Fargo - Daddy
TTITLE2=Patsy Cline - Turn the cards slowly
TTITLE3=Tanja Tucker - The night they drove old dixie down
TTITLE4=Dolly Parton - Release me
TTITLE5=Tammy Wynette - D.I.V.O.R.C.E
TTITLE6=Donna Fargo - All that's keeping me alive
TTITLE7=Patsy Cline - Let the teardrops fall
TTITLE8=Lynn Anderson - Rose Garden
TTITLE9=Patsy Cline - Walking after midnight
TTITLE10=Dottie West - An american trilogy
TTITLE11=Dolly Parton - Letter to heaven
TTITLE12=Donna Fargo - Wishful thinking
TTITLE13=Jeanny C. Riley - Harper Valley PTA
TTITLE14=Dottie West - Lesson of leavin
EXTD=ARCADE France \nTransfert Numerique WM321 302 578
EXTT0=
EXTT1=
EXTT2=
EXTT3=
EXTT4=
EXTT5=
EXTT6=
EXTT7=
EXTT8=
EXTT9=
EXTT10=
EXTT11=
EXTT12=
EXTT13=
EXTT14=
PLAYORDER=
